<svg xmlns="http://www.w3.org/2000/svg" width="36" height="36" viewBox="0 0 36 36" fill="none">
  <g clip-path="url(#clip0_2278_6464)">
    <path d="M19.178 3.24005C18.5567 3.24007 18.053 3.74376 18.053 4.36508C18.053 4.9864 18.5567 5.49007 19.1781 5.49005C20.6062 5.49001 22.0204 5.77129 23.3399 6.31781C24.6594 6.86433 25.8583 7.66539 26.8681 8.67526C27.878 9.68513 28.6791 10.884 29.2256 12.2035C29.7721 13.523 30.0534 14.9372 30.0533 16.3653C30.0533 16.9867 30.557 17.4903 31.1783 17.4904C31.7996 17.4904 32.3033 16.9867 32.3033 16.3654C32.3034 14.6417 31.9639 12.9349 31.3043 11.3425C30.6447 9.75003 29.6779 8.30308 28.4591 7.08427C27.2403 5.86547 25.7934 4.89866 24.2009 4.23907C22.6084 3.57947 20.9017 3.24001 19.178 3.24005Z" fill="#F8E5E5"/>
    <path d="M19.1782 9.24124C18.5569 9.24115 18.0531 9.74475 18.053 10.3661C18.0529 10.9874 18.5565 11.4911 19.1779 11.4912C20.4705 11.4914 21.7102 12.005 22.6243 12.9191C23.5383 13.8332 24.0519 15.0728 24.0521 16.3655C24.0522 16.9868 24.556 17.4904 25.1773 17.4903C25.7986 17.4902 26.3022 16.9865 26.3021 16.3652C26.3018 14.4759 25.5512 12.664 24.2153 11.3281C22.8793 9.99217 21.0675 9.24153 19.1782 9.24124Z" fill="#F8E5E5"/>
    <path fill-rule="evenodd" clip-rule="evenodd" d="M12.2997 21.4978C10.8499 21.4978 9.67468 22.673 9.67468 24.1228C9.67468 25.5725 10.8499 26.7478 12.2997 26.7478C13.7494 26.7478 14.9247 25.5725 14.9247 24.1228C14.9247 22.673 13.7494 21.4978 12.2997 21.4978ZM12.6747 24.1228C12.6747 24.3299 12.5068 24.4978 12.2997 24.4978C12.0926 24.4978 11.9247 24.3299 11.9247 24.1228C11.9247 23.9157 12.0926 23.7478 12.2997 23.7478C12.5068 23.7478 12.6747 23.9157 12.6747 24.1228Z" fill="#F8E5E5"/>
    <path fill-rule="evenodd" clip-rule="evenodd" d="M3.67468 19.6228C3.67468 17.3446 5.52151 15.4978 7.79968 15.4978H16.7997C19.0779 15.4978 20.9247 17.3446 20.9247 19.6228V28.6228C20.9247 30.9009 19.0779 32.7478 16.7997 32.7478H7.79968C5.52151 32.7478 3.67468 30.9009 3.67468 28.6228L3.67468 19.6228ZM7.79968 17.7478C6.76415 17.7478 5.92468 18.5872 5.92468 19.6228L5.92468 28.6228C5.92468 29.6583 6.76415 30.4978 7.79968 30.4978H16.7997C17.8352 30.4978 18.6747 29.6583 18.6747 28.6228V19.6228C18.6747 18.5872 17.8352 17.7478 16.7997 17.7478H7.79968Z" fill="#F8E5E5"/>
  </g>
  <defs>
    <clipPath id="clip0_2278_6464">
      <rect width="36" height="36" fill="white"/>
    </clipPath>
  </defs>
</svg>