<svg xmlns="http://www.w3.org/2000/svg" width="24" height="24" viewBox="0 0 24 24" fill="none">
  <path d="M20.7354 2.49311C20.7082 2.49392 20.6812 2.4962 20.6543 2.49994H13.75C13.6506 2.49854 13.5519 2.5169 13.4597 2.55396C13.3675 2.59102 13.2836 2.64604 13.2128 2.71582C13.142 2.78561 13.0858 2.86876 13.0474 2.96045C13.0091 3.05215 12.9893 3.15055 12.9893 3.24994C12.9893 3.34934 13.0091 3.44774 13.0474 3.53943C13.0858 3.63113 13.142 3.71428 13.2128 3.78406C13.2836 3.85385 13.3675 3.90887 13.4597 3.94593C13.5519 3.98299 13.6506 4.00135 13.75 3.99994H18.9395L11.2197 11.7197C11.1477 11.7888 11.0903 11.8716 11.0507 11.9632C11.0111 12.0547 10.9902 12.1533 10.9892 12.2531C10.9882 12.3529 11.0071 12.4519 11.0448 12.5442C11.0825 12.6366 11.1383 12.7206 11.2088 12.7911C11.2794 12.8617 11.3633 12.9174 11.4557 12.9552C11.5481 12.9929 11.6471 13.0118 11.7468 13.0108C11.8466 13.0098 11.9452 12.9888 12.0368 12.9493C12.1284 12.9097 12.2112 12.8522 12.2803 12.7802L20 5.06049V10.2499C19.9986 10.3493 20.017 10.448 20.054 10.5402C20.0911 10.6325 20.1461 10.7164 20.2159 10.7872C20.2857 10.8579 20.3688 10.9142 20.4605 10.9525C20.5522 10.9909 20.6506 11.0106 20.75 11.0106C20.8494 11.0106 20.9478 10.9909 21.0395 10.9525C21.1312 10.9142 21.2143 10.8579 21.2841 10.7872C21.3539 10.7164 21.4089 10.6325 21.446 10.5402C21.483 10.448 21.5014 10.3493 21.5 10.2499V3.34467C21.5148 3.23676 21.5059 3.12693 21.4739 3.02281C21.442 2.91869 21.3877 2.82277 21.315 2.74174C21.2422 2.6607 21.1527 2.59648 21.0526 2.55354C20.9525 2.51061 20.8442 2.48998 20.7354 2.49311ZM6.25 3.99994C4.18775 3.99994 2.5 5.68769 2.5 7.74994V17.7499C2.5 19.8122 4.18775 21.4999 6.25 21.4999H16.25C18.3123 21.4999 20 19.8122 20 17.7499V12.7499C20.0014 12.6506 19.983 12.5519 19.946 12.4597C19.9089 12.3674 19.8539 12.2835 19.7841 12.2127C19.7143 12.1419 19.6312 12.0857 19.5395 12.0474C19.4478 12.009 19.3494 11.9893 19.25 11.9893C19.1506 11.9893 19.0522 12.009 18.9605 12.0474C18.8688 12.0857 18.7857 12.1419 18.7159 12.2127C18.6461 12.2835 18.5911 12.3674 18.554 12.4597C18.517 12.5519 18.4986 12.6506 18.5 12.7499V17.7499C18.5 19.0017 17.5017 19.9999 16.25 19.9999H6.25C4.99825 19.9999 4 19.0017 4 17.7499V7.74994C4 6.49819 4.99825 5.49994 6.25 5.49994H11.25C11.3494 5.50135 11.4481 5.48299 11.5403 5.44593C11.6325 5.40887 11.7164 5.35385 11.7872 5.28406C11.858 5.21428 11.9142 5.13112 11.9526 5.03943C11.9909 4.94774 12.0107 4.84934 12.0107 4.74994C12.0107 4.65055 11.9909 4.55215 11.9526 4.46045C11.9142 4.36876 11.858 4.28561 11.7872 4.21582C11.7164 4.14604 11.6325 4.09102 11.5403 4.05396C11.4481 4.0169 11.3494 3.99854 11.25 3.99994H6.25Z" fill="white"/>
</svg>