<svg xmlns="http://www.w3.org/2000/svg" width="123" height="16" viewBox="0 0 123 16" fill="none">
  <path d="M8.888 11.984L7.992 9.13604H4.024L3.144 11.984H1L4.744 0.81604H7.368L11.08 11.984H8.888ZM6.04 2.73604H5.96L4.536 7.32804H7.48L6.04 2.73604Z" fill="white"/>
  <path d="M11.718 11.984L14.566 7.74404L11.782 3.63204H14.118L15.846 6.40004H15.91L17.622 3.63204H19.798L16.966 7.77604L19.814 11.984H17.478L15.718 9.10404H15.654L13.894 11.984H11.718Z" fill="white"/>
  <path d="M24.3787 12.176C23.7814 12.176 23.2428 12.0747 22.7628 11.872C22.2934 11.6694 21.8881 11.376 21.5467 10.992C21.2161 10.608 20.9601 10.1494 20.7787 9.61604C20.5974 9.07204 20.5068 8.46404 20.5068 7.79204C20.5068 7.12004 20.5974 6.51737 20.7787 5.98404C20.9601 5.45071 21.2161 4.99737 21.5467 4.62404C21.8881 4.24004 22.2934 3.94671 22.7628 3.74404C23.2428 3.54137 23.7814 3.44004 24.3787 3.44004C24.9761 3.44004 25.5147 3.54137 25.9947 3.74404C26.4747 3.94671 26.8801 4.24004 27.2108 4.62404C27.5521 4.99737 27.8134 5.45071 27.9947 5.98404C28.1761 6.51737 28.2668 7.12004 28.2668 7.79204C28.2668 8.46404 28.1761 9.07204 27.9947 9.61604C27.8134 10.1494 27.5521 10.608 27.2108 10.992C26.8801 11.376 26.4747 11.6694 25.9947 11.872C25.5147 12.0747 24.9761 12.176 24.3787 12.176ZM24.3787 10.528C24.9228 10.528 25.3494 10.3627 25.6588 10.032C25.9681 9.70137 26.1227 9.21604 26.1227 8.57604V7.02404C26.1227 6.39471 25.9681 5.91471 25.6588 5.58404C25.3494 5.25337 24.9228 5.08804 24.3787 5.08804C23.8454 5.08804 23.4241 5.25337 23.1147 5.58404C22.8054 5.91471 22.6507 6.39471 22.6507 7.02404V8.57604C22.6507 9.21604 22.8054 9.70137 23.1147 10.032C23.4241 10.3627 23.8454 10.528 24.3787 10.528Z" fill="white"/>
  <path d="M30.0824 11.984V3.63204H32.1304V5.02404H32.2104C32.381 4.57604 32.6477 4.20271 33.0104 3.90404C33.3837 3.59471 33.8957 3.44004 34.5464 3.44004C35.4104 3.44004 36.0717 3.72271 36.5304 4.28804C36.989 4.85337 37.2184 5.65871 37.2184 6.70404V11.984H35.1704V6.91204C35.1704 6.31471 35.0637 5.86671 34.8504 5.56804C34.637 5.26937 34.285 5.12004 33.7944 5.12004C33.581 5.12004 33.373 5.15204 33.1704 5.21604C32.9784 5.26937 32.8024 5.35471 32.6424 5.47204C32.493 5.57871 32.3704 5.71737 32.2744 5.88804C32.1784 6.04804 32.1304 6.24004 32.1304 6.46404V11.984H30.0824Z" fill="white"/>
  <path d="M42.2246 12.176C41.4246 12.176 40.7526 12.0427 40.2086 11.776C39.6646 11.4987 39.1846 11.12 38.7686 10.64L40.0166 9.42404C40.326 9.77604 40.662 10.0534 41.0246 10.256C41.398 10.4587 41.8246 10.56 42.3046 10.56C42.7953 10.56 43.1473 10.4747 43.3606 10.304C43.5846 10.1334 43.6966 9.89871 43.6966 9.60004C43.6966 9.35471 43.6166 9.16271 43.4566 9.02404C43.3073 8.87471 43.046 8.77337 42.6726 8.72004L41.8406 8.60804C40.934 8.49071 40.2406 8.23471 39.7606 7.84004C39.2913 7.43471 39.0566 6.84804 39.0566 6.08004C39.0566 5.67471 39.1313 5.31204 39.2806 4.99204C39.43 4.66137 39.6433 4.38404 39.9206 4.16004C40.198 3.92537 40.5286 3.74937 40.9126 3.63204C41.3073 3.50404 41.7446 3.44004 42.2246 3.44004C42.63 3.44004 42.9873 3.47204 43.2966 3.53604C43.6166 3.58937 43.9046 3.67471 44.1606 3.79204C44.4166 3.89871 44.6513 4.03737 44.8646 4.20804C45.078 4.36804 45.286 4.54937 45.4886 4.75204L44.2886 5.95204C44.0433 5.69604 43.75 5.48271 43.4086 5.31204C43.0673 5.14137 42.694 5.05604 42.2886 5.05604C41.8406 5.05604 41.5153 5.13604 41.3126 5.29604C41.1206 5.45604 41.0246 5.66404 41.0246 5.92004C41.0246 6.19737 41.1046 6.41071 41.2646 6.56004C41.4353 6.69871 41.718 6.80004 42.1126 6.86404L42.9606 6.97604C44.7633 7.23204 45.6646 8.05337 45.6646 9.44004C45.6646 9.84537 45.5793 10.2187 45.4086 10.56C45.2486 10.8907 45.0193 11.1787 44.7206 11.424C44.422 11.6587 44.0593 11.8454 43.6326 11.984C43.2166 12.112 42.7473 12.176 42.2246 12.176Z" fill="white"/>
  <path d="M51.3823 11.984V0.81604H58.5663V2.68804H53.4943V5.39204H57.9103V7.26404H53.4943V11.984H51.3823Z" fill="white"/>
  <path d="M65.992 11.984C65.544 11.984 65.1867 11.856 64.92 11.6C64.664 11.3334 64.504 10.9814 64.44 10.544H64.344C64.2053 11.088 63.9227 11.4987 63.496 11.776C63.0693 12.0427 62.5413 12.176 61.912 12.176C61.0587 12.176 60.4027 11.952 59.944 11.504C59.4853 11.056 59.256 10.4587 59.256 9.71204C59.256 8.84804 59.5653 8.20804 60.184 7.79204C60.8027 7.36537 61.6827 7.15204 62.824 7.15204H64.248V6.54404C64.248 6.07471 64.1253 5.71204 63.88 5.45604C63.6347 5.20004 63.24 5.07204 62.696 5.07204C62.216 5.07204 61.8267 5.17871 61.528 5.39204C61.24 5.59471 60.9947 5.84004 60.792 6.12804L59.576 5.04004C59.8853 4.56004 60.296 4.17604 60.808 3.88804C61.32 3.58937 61.9973 3.44004 62.84 3.44004C63.9707 3.44004 64.8293 3.69604 65.416 4.20804C66.0027 4.72004 66.296 5.45604 66.296 6.41604V10.352H67.128V11.984H65.992ZM62.6 10.688C63.0587 10.688 63.448 10.5867 63.768 10.384C64.088 10.1814 64.248 9.88271 64.248 9.48804V8.38404H62.936C61.8693 8.38404 61.336 8.72537 61.336 9.40804V9.68004C61.336 10.0214 61.4427 10.2774 61.656 10.448C61.88 10.608 62.1947 10.688 62.6 10.688Z" fill="white"/>
  <path d="M68.7855 11.984V3.63204H70.8335V5.36004H70.9135C70.9668 5.13604 71.0468 4.92271 71.1535 4.72004C71.2708 4.50671 71.4202 4.32004 71.6015 4.16004C71.7828 4.00004 71.9962 3.87204 72.2415 3.77604C72.4975 3.68004 72.7908 3.63204 73.1215 3.63204H73.5695V5.56804H72.9295C72.2362 5.56804 71.7135 5.66937 71.3615 5.87204C71.0095 6.07471 70.8335 6.40537 70.8335 6.86404V11.984H68.7855Z" fill="white"/>
  <path d="M75.0667 11.984V3.63204H77.1148V5.02404H77.1947C77.3548 4.58671 77.6108 4.21337 77.9628 3.90404C78.3148 3.59471 78.8054 3.44004 79.4348 3.44004C80.0108 3.44004 80.5068 3.57871 80.9228 3.85604C81.3388 4.13337 81.6481 4.55471 81.8508 5.12004H81.8828C82.0321 4.65071 82.3254 4.25604 82.7627 3.93604C83.2107 3.60537 83.7708 3.44004 84.4427 3.44004C85.2641 3.44004 85.8934 3.72271 86.3307 4.28804C86.7787 4.85337 87.0028 5.65871 87.0028 6.70404V11.984H84.9548V6.91204C84.9548 5.71737 84.5067 5.12004 83.6107 5.12004C83.4081 5.12004 83.2108 5.15204 83.0188 5.21604C82.8374 5.26937 82.6721 5.35471 82.5228 5.47204C82.3841 5.57871 82.2721 5.71737 82.1868 5.88804C82.1014 6.04804 82.0588 6.24004 82.0588 6.46404V11.984H80.0107V6.91204C80.0107 5.71737 79.5627 5.12004 78.6667 5.12004C78.4747 5.12004 78.2828 5.15204 78.0908 5.21604C77.9094 5.26937 77.7441 5.35471 77.5947 5.47204C77.4561 5.57871 77.3388 5.71737 77.2428 5.88804C77.1574 6.04804 77.1148 6.24004 77.1148 6.46404V11.984H75.0667Z" fill="white"/>
  <path d="M89.3979 11.984V0.81604H96.7579V2.68804H91.5099V5.39204H96.1499V7.26404H91.5099V10.112H96.7579V11.984H89.3979Z" fill="white"/>
  <path d="M103.984 3.63204H105.904L102.544 13.472C102.437 13.7707 102.314 14.0267 102.176 14.24C102.048 14.464 101.893 14.6454 101.712 14.784C101.53 14.9227 101.312 15.024 101.056 15.088C100.8 15.152 100.501 15.184 100.16 15.184H98.9276V13.552H100.432L100.816 12.384L97.8236 3.63204H99.8556L101.312 8.04804L101.856 10.16H101.952L102.528 8.04804L103.984 3.63204Z" fill="white"/>
  <path d="M110.521 12.176C109.902 12.176 109.348 12.0747 108.857 11.872C108.377 11.6587 107.966 11.3654 107.625 10.992C107.294 10.608 107.038 10.1494 106.857 9.61604C106.676 9.07204 106.585 8.46404 106.585 7.79204C106.585 7.13071 106.67 6.53337 106.841 6.00004C107.022 5.46671 107.278 5.01337 107.609 4.64004C107.94 4.25604 108.345 3.96271 108.825 3.76004C109.305 3.54671 109.849 3.44004 110.457 3.44004C111.108 3.44004 111.673 3.55204 112.153 3.77604C112.633 4.00004 113.028 4.30404 113.337 4.68804C113.646 5.07204 113.876 5.52004 114.025 6.03204C114.185 6.53337 114.265 7.07204 114.265 7.64804V8.32004H108.713V8.52804C108.713 9.13604 108.884 9.62671 109.225 10C109.566 10.3627 110.073 10.544 110.745 10.544C111.257 10.544 111.673 10.4374 111.993 10.224C112.324 10.0107 112.617 9.73871 112.873 9.40804L113.977 10.64C113.636 11.12 113.166 11.4987 112.569 11.776C111.982 12.0427 111.3 12.176 110.521 12.176ZM110.489 4.97604C109.945 4.97604 109.513 5.15737 109.193 5.52004C108.873 5.88271 108.713 6.35204 108.713 6.92804V7.05604H112.137V6.91204C112.137 6.33604 111.993 5.87204 111.705 5.52004C111.428 5.15737 111.022 4.97604 110.489 4.97604Z" fill="white"/>
  <path d="M118.803 12.176C118.003 12.176 117.331 12.0427 116.787 11.776C116.243 11.4987 115.763 11.12 115.347 10.64L116.595 9.42404C116.904 9.77604 117.24 10.0534 117.603 10.256C117.976 10.4587 118.403 10.56 118.883 10.56C119.373 10.56 119.725 10.4747 119.939 10.304C120.163 10.1334 120.275 9.89871 120.275 9.60004C120.275 9.35471 120.195 9.16271 120.035 9.02404C119.885 8.87471 119.624 8.77337 119.251 8.72004L118.419 8.60804C117.512 8.49071 116.819 8.23471 116.339 7.84004C115.869 7.43471 115.635 6.84804 115.635 6.08004C115.635 5.67471 115.709 5.31204 115.859 4.99204C116.008 4.66137 116.221 4.38404 116.499 4.16004C116.776 3.92537 117.107 3.74937 117.491 3.63204C117.885 3.50404 118.323 3.44004 118.803 3.44004C119.208 3.44004 119.565 3.47204 119.875 3.53604C120.195 3.58937 120.483 3.67471 120.739 3.79204C120.995 3.89871 121.229 4.03737 121.443 4.20804C121.656 4.36804 121.864 4.54937 122.067 4.75204L120.867 5.95204C120.621 5.69604 120.328 5.48271 119.987 5.31204C119.645 5.14137 119.272 5.05604 118.867 5.05604C118.419 5.05604 118.093 5.13604 117.891 5.29604C117.699 5.45604 117.603 5.66404 117.603 5.92004C117.603 6.19737 117.683 6.41071 117.843 6.56004C118.013 6.69871 118.296 6.80004 118.691 6.86404L119.539 6.97604C121.341 7.23204 122.243 8.05337 122.243 9.44004C122.243 9.84537 122.157 10.2187 121.987 10.56C121.827 10.8907 121.597 11.1787 121.299 11.424C121 11.6587 120.637 11.8454 120.211 11.984C119.795 12.112 119.325 12.176 118.803 12.176Z" fill="white"/>
  <path d="M8.888 11.984L7.992 9.13604H4.024L3.144 11.984H1L4.744 0.81604H7.368L11.08 11.984H8.888ZM6.04 2.73604H5.96L4.536 7.32804H7.48L6.04 2.73604Z" stroke="white" stroke-linejoin="round"/>
  <path d="M11.718 11.984L14.566 7.74404L11.782 3.63204H14.118L15.846 6.40004H15.91L17.622 3.63204H19.798L16.966 7.77604L19.814 11.984H17.478L15.718 9.10404H15.654L13.894 11.984H11.718Z" stroke="white" stroke-linejoin="round"/>
  <path d="M24.3787 12.176C23.7814 12.176 23.2428 12.0747 22.7628 11.872C22.2934 11.6694 21.8881 11.376 21.5467 10.992C21.2161 10.608 20.9601 10.1494 20.7787 9.61604C20.5974 9.07204 20.5068 8.46404 20.5068 7.79204C20.5068 7.12004 20.5974 6.51737 20.7787 5.98404C20.9601 5.45071 21.2161 4.99737 21.5467 4.62404C21.8881 4.24004 22.2934 3.94671 22.7628 3.74404C23.2428 3.54137 23.7814 3.44004 24.3787 3.44004C24.9761 3.44004 25.5147 3.54137 25.9947 3.74404C26.4747 3.94671 26.8801 4.24004 27.2108 4.62404C27.5521 4.99737 27.8134 5.45071 27.9947 5.98404C28.1761 6.51737 28.2668 7.12004 28.2668 7.79204C28.2668 8.46404 28.1761 9.07204 27.9947 9.61604C27.8134 10.1494 27.5521 10.608 27.2108 10.992C26.8801 11.376 26.4747 11.6694 25.9947 11.872C25.5147 12.0747 24.9761 12.176 24.3787 12.176ZM24.3787 10.528C24.9228 10.528 25.3494 10.3627 25.6588 10.032C25.9681 9.70137 26.1227 9.21604 26.1227 8.57604V7.02404C26.1227 6.39471 25.9681 5.91471 25.6588 5.58404C25.3494 5.25337 24.9228 5.08804 24.3787 5.08804C23.8454 5.08804 23.4241 5.25337 23.1147 5.58404C22.8054 5.91471 22.6507 6.39471 22.6507 7.02404V8.57604C22.6507 9.21604 22.8054 9.70137 23.1147 10.032C23.4241 10.3627 23.8454 10.528 24.3787 10.528Z" stroke="white" stroke-linejoin="round"/>
  <path d="M30.0824 11.984V3.63204H32.1304V5.02404H32.2104C32.381 4.57604 32.6477 4.20271 33.0104 3.90404C33.3837 3.59471 33.8957 3.44004 34.5464 3.44004C35.4104 3.44004 36.0717 3.72271 36.5304 4.28804C36.989 4.85337 37.2184 5.65871 37.2184 6.70404V11.984H35.1704V6.91204C35.1704 6.31471 35.0637 5.86671 34.8504 5.56804C34.637 5.26937 34.285 5.12004 33.7944 5.12004C33.581 5.12004 33.373 5.15204 33.1704 5.21604C32.9784 5.26937 32.8024 5.35471 32.6424 5.47204C32.493 5.57871 32.3704 5.71737 32.2744 5.88804C32.1784 6.04804 32.1304 6.24004 32.1304 6.46404V11.984H30.0824Z" stroke="white" stroke-linejoin="round"/>
  <path d="M42.2246 12.176C41.4246 12.176 40.7526 12.0427 40.2086 11.776C39.6646 11.4987 39.1846 11.12 38.7686 10.64L40.0166 9.42404C40.326 9.77604 40.662 10.0534 41.0246 10.256C41.398 10.4587 41.8246 10.56 42.3046 10.56C42.7953 10.56 43.1473 10.4747 43.3606 10.304C43.5846 10.1334 43.6966 9.89871 43.6966 9.60004C43.6966 9.35471 43.6166 9.16271 43.4566 9.02404C43.3073 8.87471 43.046 8.77337 42.6726 8.72004L41.8406 8.60804C40.934 8.49071 40.2406 8.23471 39.7606 7.84004C39.2913 7.43471 39.0566 6.84804 39.0566 6.08004C39.0566 5.67471 39.1313 5.31204 39.2806 4.99204C39.43 4.66137 39.6433 4.38404 39.9206 4.16004C40.198 3.92537 40.5286 3.74937 40.9126 3.63204C41.3073 3.50404 41.7446 3.44004 42.2246 3.44004C42.63 3.44004 42.9873 3.47204 43.2966 3.53604C43.6166 3.58937 43.9046 3.67471 44.1606 3.79204C44.4166 3.89871 44.6513 4.03737 44.8646 4.20804C45.078 4.36804 45.286 4.54937 45.4886 4.75204L44.2886 5.95204C44.0433 5.69604 43.75 5.48271 43.4086 5.31204C43.0673 5.14137 42.694 5.05604 42.2886 5.05604C41.8406 5.05604 41.5153 5.13604 41.3126 5.29604C41.1206 5.45604 41.0246 5.66404 41.0246 5.92004C41.0246 6.19737 41.1046 6.41071 41.2646 6.56004C41.4353 6.69871 41.718 6.80004 42.1126 6.86404L42.9606 6.97604C44.7633 7.23204 45.6646 8.05337 45.6646 9.44004C45.6646 9.84537 45.5793 10.2187 45.4086 10.56C45.2486 10.8907 45.0193 11.1787 44.7206 11.424C44.422 11.6587 44.0593 11.8454 43.6326 11.984C43.2166 12.112 42.7473 12.176 42.2246 12.176Z" stroke="white" stroke-linejoin="round"/>
  <path d="M51.3823 11.984V0.81604H58.5663V2.68804H53.4943V5.39204H57.9103V7.26404H53.4943V11.984H51.3823Z" stroke="white" stroke-linejoin="round"/>
  <path d="M65.992 11.984C65.544 11.984 65.1867 11.856 64.92 11.6C64.664 11.3334 64.504 10.9814 64.44 10.544H64.344C64.2053 11.088 63.9227 11.4987 63.496 11.776C63.0693 12.0427 62.5413 12.176 61.912 12.176C61.0587 12.176 60.4027 11.952 59.944 11.504C59.4853 11.056 59.256 10.4587 59.256 9.71204C59.256 8.84804 59.5653 8.20804 60.184 7.79204C60.8027 7.36537 61.6827 7.15204 62.824 7.15204H64.248V6.54404C64.248 6.07471 64.1253 5.71204 63.88 5.45604C63.6347 5.20004 63.24 5.07204 62.696 5.07204C62.216 5.07204 61.8267 5.17871 61.528 5.39204C61.24 5.59471 60.9947 5.84004 60.792 6.12804L59.576 5.04004C59.8853 4.56004 60.296 4.17604 60.808 3.88804C61.32 3.58937 61.9973 3.44004 62.84 3.44004C63.9707 3.44004 64.8293 3.69604 65.416 4.20804C66.0027 4.72004 66.296 5.45604 66.296 6.41604V10.352H67.128V11.984H65.992ZM62.6 10.688C63.0587 10.688 63.448 10.5867 63.768 10.384C64.088 10.1814 64.248 9.88271 64.248 9.48804V8.38404H62.936C61.8693 8.38404 61.336 8.72537 61.336 9.40804V9.68004C61.336 10.0214 61.4427 10.2774 61.656 10.448C61.88 10.608 62.1947 10.688 62.6 10.688Z" stroke="white" stroke-linejoin="round"/>
  <path d="M68.7855 11.984V3.63204H70.8335V5.36004H70.9135C70.9668 5.13604 71.0468 4.92271 71.1535 4.72004C71.2708 4.50671 71.4202 4.32004 71.6015 4.16004C71.7828 4.00004 71.9962 3.87204 72.2415 3.77604C72.4975 3.68004 72.7908 3.63204 73.1215 3.63204H73.5695V5.56804H72.9295C72.2362 5.56804 71.7135 5.66937 71.3615 5.87204C71.0095 6.07471 70.8335 6.40537 70.8335 6.86404V11.984H68.7855Z" stroke="white" stroke-linejoin="round"/>
  <path d="M75.0667 11.984V3.63204H77.1148V5.02404H77.1947C77.3548 4.58671 77.6108 4.21337 77.9628 3.90404C78.3148 3.59471 78.8054 3.44004 79.4348 3.44004C80.0108 3.44004 80.5068 3.57871 80.9228 3.85604C81.3388 4.13337 81.6481 4.55471 81.8508 5.12004H81.8828C82.0321 4.65071 82.3254 4.25604 82.7627 3.93604C83.2107 3.60537 83.7708 3.44004 84.4427 3.44004C85.2641 3.44004 85.8934 3.72271 86.3307 4.28804C86.7787 4.85337 87.0028 5.65871 87.0028 6.70404V11.984H84.9548V6.91204C84.9548 5.71737 84.5067 5.12004 83.6107 5.12004C83.4081 5.12004 83.2108 5.15204 83.0188 5.21604C82.8374 5.26937 82.6721 5.35471 82.5228 5.47204C82.3841 5.57871 82.2721 5.71737 82.1868 5.88804C82.1014 6.04804 82.0588 6.24004 82.0588 6.46404V11.984H80.0107V6.91204C80.0107 5.71737 79.5627 5.12004 78.6667 5.12004C78.4747 5.12004 78.2828 5.15204 78.0908 5.21604C77.9094 5.26937 77.7441 5.35471 77.5947 5.47204C77.4561 5.57871 77.3388 5.71737 77.2428 5.88804C77.1574 6.04804 77.1148 6.24004 77.1148 6.46404V11.984H75.0667Z" stroke="white" stroke-linejoin="round"/>
  <path d="M89.3979 11.984V0.81604H96.7579V2.68804H91.5099V5.39204H96.1499V7.26404H91.5099V10.112H96.7579V11.984H89.3979Z" stroke="white" stroke-linejoin="round"/>
  <path d="M103.984 3.63204H105.904L102.544 13.472C102.437 13.7707 102.314 14.0267 102.176 14.24C102.048 14.464 101.893 14.6454 101.712 14.784C101.53 14.9227 101.312 15.024 101.056 15.088C100.8 15.152 100.501 15.184 100.16 15.184H98.9276V13.552H100.432L100.816 12.384L97.8236 3.63204H99.8556L101.312 8.04804L101.856 10.16H101.952L102.528 8.04804L103.984 3.63204Z" stroke="white" stroke-linejoin="round"/>
  <path d="M110.521 12.176C109.902 12.176 109.348 12.0747 108.857 11.872C108.377 11.6587 107.966 11.3654 107.625 10.992C107.294 10.608 107.038 10.1494 106.857 9.61604C106.676 9.07204 106.585 8.46404 106.585 7.79204C106.585 7.13071 106.67 6.53337 106.841 6.00004C107.022 5.46671 107.278 5.01337 107.609 4.64004C107.94 4.25604 108.345 3.96271 108.825 3.76004C109.305 3.54671 109.849 3.44004 110.457 3.44004C111.108 3.44004 111.673 3.55204 112.153 3.77604C112.633 4.00004 113.028 4.30404 113.337 4.68804C113.646 5.07204 113.876 5.52004 114.025 6.03204C114.185 6.53337 114.265 7.07204 114.265 7.64804V8.32004H108.713V8.52804C108.713 9.13604 108.884 9.62671 109.225 10C109.566 10.3627 110.073 10.544 110.745 10.544C111.257 10.544 111.673 10.4374 111.993 10.224C112.324 10.0107 112.617 9.73871 112.873 9.40804L113.977 10.64C113.636 11.12 113.166 11.4987 112.569 11.776C111.982 12.0427 111.3 12.176 110.521 12.176ZM110.489 4.97604C109.945 4.97604 109.513 5.15737 109.193 5.52004C108.873 5.88271 108.713 6.35204 108.713 6.92804V7.05604H112.137V6.91204C112.137 6.33604 111.993 5.87204 111.705 5.52004C111.428 5.15737 111.022 4.97604 110.489 4.97604Z" stroke="white" stroke-linejoin="round"/>
  <path d="M118.803 12.176C118.003 12.176 117.331 12.0427 116.787 11.776C116.243 11.4987 115.763 11.12 115.347 10.64L116.595 9.42404C116.904 9.77604 117.24 10.0534 117.603 10.256C117.976 10.4587 118.403 10.56 118.883 10.56C119.373 10.56 119.725 10.4747 119.939 10.304C120.163 10.1334 120.275 9.89871 120.275 9.60004C120.275 9.35471 120.195 9.16271 120.035 9.02404C119.885 8.87471 119.624 8.77337 119.251 8.72004L118.419 8.60804C117.512 8.49071 116.819 8.23471 116.339 7.84004C115.869 7.43471 115.635 6.84804 115.635 6.08004C115.635 5.67471 115.709 5.31204 115.859 4.99204C116.008 4.66137 116.221 4.38404 116.499 4.16004C116.776 3.92537 117.107 3.74937 117.491 3.63204C117.885 3.50404 118.323 3.44004 118.803 3.44004C119.208 3.44004 119.565 3.47204 119.875 3.53604C120.195 3.58937 120.483 3.67471 120.739 3.79204C120.995 3.89871 121.229 4.03737 121.443 4.20804C121.656 4.36804 121.864 4.54937 122.067 4.75204L120.867 5.95204C120.621 5.69604 120.328 5.48271 119.987 5.31204C119.645 5.14137 119.272 5.05604 118.867 5.05604C118.419 5.05604 118.093 5.13604 117.891 5.29604C117.699 5.45604 117.603 5.66404 117.603 5.92004C117.603 6.19737 117.683 6.41071 117.843 6.56004C118.013 6.69871 118.296 6.80004 118.691 6.86404L119.539 6.97604C121.341 7.23204 122.243 8.05337 122.243 9.44004C122.243 9.84537 122.157 10.2187 121.987 10.56C121.827 10.8907 121.597 11.1787 121.299 11.424C121 11.6587 120.637 11.8454 120.211 11.984C119.795 12.112 119.325 12.176 118.803 12.176Z" stroke="white" stroke-linejoin="round"/>
</svg>