<svg xmlns="http://www.w3.org/2000/svg" width="25" height="24" viewBox="0 0 25 24" fill="none">
  <path d="M15.4255 15.5067L15.0932 15.1744L14.7287 15.4709C13.5698 16.4133 12.0961 16.9792 10.4928 16.9792C6.78526 16.9792 3.76363 13.9575 3.76363 10.25C3.76363 6.54247 6.78526 3.52083 10.4928 3.52083C14.2003 3.52083 17.222 6.54247 17.222 10.25C17.222 11.8533 16.6561 13.327 15.7137 14.4859L15.4172 14.8504L15.7495 15.1827L20.6548 20.088L20.6547 20.0881L20.6623 20.0954C20.6843 20.1165 20.7019 20.1418 20.714 20.1698C20.7261 20.1978 20.7325 20.228 20.7328 20.2585C20.7331 20.2889 20.7273 20.3192 20.7158 20.3474C20.7043 20.3757 20.6872 20.4013 20.6657 20.4229C20.6441 20.4444 20.6185 20.4615 20.5902 20.473C20.562 20.4845 20.5317 20.4903 20.5013 20.49C20.4708 20.4897 20.4406 20.4833 20.4126 20.4712C20.3846 20.4591 20.3593 20.4416 20.3382 20.4196L20.3383 20.4195L20.3308 20.412L15.4255 15.5067ZM14.9468 14.655L14.9828 14.6285L15.0138 14.5963C16.0957 13.4709 16.7636 11.9414 16.7636 10.25C16.7636 6.77783 13.965 3.97917 10.4928 3.97917C7.02063 3.97917 4.22196 6.77783 4.22196 10.25C4.22196 13.7222 7.02063 16.5208 10.4928 16.5208C12.1842 16.5208 13.7137 15.8529 14.8391 14.771L14.8713 14.74L14.8978 14.704C14.9116 14.6853 14.9281 14.6688 14.9468 14.655Z" fill="#101828" stroke="#667085" stroke-width="1.04167"/>
</svg>