<svg xmlns="http://www.w3.org/2000/svg" width="36" height="36" viewBox="0 0 36 36" fill="none">
  <path d="M8.8002 8.71905C9.23953 9.1584 9.23951 9.87071 8.80016 10.31C7.79026 11.3199 6.98916 12.5188 6.44261 13.8382C5.89605 15.1577 5.61475 16.5719 5.61475 18C5.61475 19.4282 5.89605 20.8424 6.44261 22.1618C6.98916 23.4813 7.79026 24.6802 8.80016 25.69C9.23951 26.1293 9.23953 26.8416 8.8002 27.281C8.36087 27.7204 7.64856 27.7204 7.20921 27.281C5.99037 26.0623 5.02353 24.6153 4.36389 23.0229C3.70426 21.4305 3.36475 19.7237 3.36475 18C3.36475 16.2764 3.70426 14.5696 4.36389 12.9772C5.02353 11.3847 5.99037 9.93779 7.20921 8.71901C7.64856 8.27968 8.36087 8.2797 8.8002 8.71905Z" fill="#FEF3E5"/>
  <path d="M27.1889 8.71905C27.6282 8.2797 28.3405 8.27968 28.7798 8.71901C29.9987 9.93779 30.9655 11.3847 31.6252 12.9772C32.2848 14.5696 32.6243 16.2764 32.6243 18C32.6243 19.7237 32.2848 21.4305 31.6252 23.0229C30.9655 24.6153 29.9987 26.0623 28.7798 27.281C28.3405 27.7204 27.6282 27.7204 27.1889 27.281C26.7495 26.8416 26.7495 26.1293 27.1889 25.69C28.1988 24.6802 28.9999 23.4813 29.5465 22.1618C30.093 20.8424 30.3743 19.4282 30.3743 18C30.3743 16.5719 30.093 15.1577 29.5465 13.8382C28.9999 12.5188 28.1988 11.3199 27.1889 10.31C26.7495 9.87071 26.7495 9.1584 27.1889 8.71905Z" fill="#FEF3E5"/>
  <path d="M24.4461 12.9624C24.8855 12.5231 25.5978 12.5232 26.0371 12.9626C27.3728 14.2988 28.1232 16.1107 28.1232 18C28.1232 19.8893 27.3728 21.7012 26.0371 23.0374C25.5978 23.4768 24.8855 23.4769 24.4461 23.0376C24.0067 22.5983 24.0066 21.886 24.4458 21.4466C25.3598 20.5324 25.8732 19.2927 25.8732 18C25.8732 16.7073 25.3598 15.4676 24.4458 14.5534C24.0066 14.114 24.0067 13.4017 24.4461 12.9624Z" fill="#FEF3E5"/>
  <path d="M11.5465 14.5534C11.9857 14.114 11.9856 13.4017 11.5462 12.9624C11.1068 12.5231 10.3945 12.5232 9.95524 12.9626C8.61951 14.2988 7.86914 16.1107 7.86914 18C7.86914 19.8893 8.61951 21.7012 9.95524 23.0374C10.3945 23.4768 11.1068 23.4769 11.5462 23.0376C11.9856 22.5983 11.9857 21.886 11.5465 21.4466C10.6326 20.5324 10.1191 19.2927 10.1191 18C10.1191 16.7073 10.6326 15.4676 11.5465 14.5534Z" fill="#FEF3E5"/>
  <path d="M17.9985 12.375C16.1346 12.375 14.6235 13.886 14.6235 15.75C14.6235 17.614 16.1346 19.125 17.9985 19.125C18.6199 19.125 19.1235 19.6287 19.1235 20.25C19.1235 20.8713 18.6199 21.375 17.9985 21.375H15.7485C15.1272 21.375 14.6235 21.8787 14.6235 22.5C14.6235 23.1213 15.1272 23.625 15.7485 23.625H17.9985C19.8625 23.625 21.3735 22.114 21.3735 20.25C21.3735 18.386 19.8625 16.875 17.9985 16.875C17.3772 16.875 16.8735 16.3713 16.8735 15.75C16.8735 15.1287 17.3772 14.625 17.9985 14.625H20.2485C20.8699 14.625 21.3735 14.1213 21.3735 13.5C21.3735 12.8787 20.8699 12.375 20.2485 12.375H17.9985Z" fill="#FEF3E5"/>
</svg>